<?xml version="1.0" encoding="UTF-8"?>
<!DOCTYPE svg PUBLIC "-//W3C//DTD SVG 1.1//EN" "http://www.w3.org/Graphics/SVG/1.1/DTD/svg11.dtd">
<svg xmlns="http://www.w3.org/2000/svg" version="1.1" width="500px" height="500px" style="shape-rendering:geometricPrecision; text-rendering:geometricPrecision; image-rendering:optimizeQuality; fill-rule:evenodd; clip-rule:evenodd" xmlns:xlink="http://www.w3.org/1999/xlink">
<g><path style="opacity:1" fill="#b97f88" d="M -0.5,-0.5 C 166.167,-0.5 332.833,-0.5 499.5,-0.5C 499.5,166.167 499.5,332.833 499.5,499.5C 332.833,499.5 166.167,499.5 -0.5,499.5C -0.5,332.833 -0.5,166.167 -0.5,-0.5 Z"/></g>
<g><path style="opacity:1" fill="#e1c8cc" d="M 105.5,135.5 C 103.871,134.375 102.371,133.041 101,131.5C 100.833,132.167 100.667,132.833 100.5,133.5C 101.844,137.863 103.177,142.196 104.5,146.5C 100.805,141.38 99.1386,135.714 99.5,129.5C 102.545,130.544 104.545,132.544 105.5,135.5 Z"/></g>
<g><path style="opacity:1" fill="#ebdadd" d="M 125.5,134.5 C 124.955,136.593 124.122,138.593 123,140.5C 122.458,137.918 123.292,135.918 125.5,134.5 Z"/></g>
<g><path style="opacity:1" fill="#dfc4c8" d="M 125.5,134.5 C 127.716,128.647 129.382,128.481 130.5,134C 130.506,136.3 130.006,138.466 129,140.5C 129.253,137.867 129.253,135.2 129,132.5C 128.667,133.167 128.333,133.833 128,134.5C 127.23,133.402 126.397,133.402 125.5,134.5 Z"/></g>
<g><path style="opacity:1" fill="#c29198" d="M 105.5,135.5 C 107.139,139.716 107.973,144.049 108,148.5C 107.667,147.833 107.333,147.167 107,146.5C 106.23,147.598 105.397,147.598 104.5,146.5C 103.177,142.196 101.844,137.863 100.5,133.5C 100.667,132.833 100.833,132.167 101,131.5C 102.371,133.041 103.871,134.375 105.5,135.5 Z"/></g>
<g><path style="opacity:1" fill="#d3afb4" d="M 121.5,144.5 C 121.631,145.239 121.464,145.906 121,146.5C 120.346,145.304 119.846,145.304 119.5,146.5C 121.156,148.412 121.489,150.412 120.5,152.5C 119.817,152.137 119.15,151.804 118.5,151.5C 115.771,146.479 113.937,141.146 113,135.5C 115.866,138.649 118.699,141.649 121.5,144.5 Z"/></g>
<g><path style="opacity:1" fill="#e9d7da" d="M 123.5,155.5 C 123.672,156.492 123.338,157.158 122.5,157.5C 120.748,155.754 119.415,153.754 118.5,151.5C 119.15,151.804 119.817,152.137 120.5,152.5C 121.489,150.412 121.156,148.412 119.5,146.5C 119.846,145.304 120.346,145.304 121,146.5C 121.464,145.906 121.631,145.239 121.5,144.5C 121.351,143.448 121.517,142.448 122,141.5C 122.251,143.433 122.751,145.266 123.5,147C 122.987,149.718 122.987,152.551 123.5,155.5 Z"/></g>
<g><path style="opacity:1" fill="#d7b6bb" d="M 105.5,135.5 C 106.117,135.611 106.617,135.944 107,136.5C 108.702,141.051 109.868,145.717 110.5,150.5C 109.12,151.706 107.953,151.373 107,149.5C 105.176,150.749 105.343,151.915 107.5,153C 106.584,153.278 105.918,153.778 105.5,154.5C 101.317,152.913 97.6505,150.579 94.5,147.5C 97.8876,147.053 101.221,147.719 104.5,149.5C 105.087,148.767 105.087,147.767 104.5,146.5C 105.397,147.598 106.23,147.598 107,146.5C 107.333,147.167 107.667,147.833 108,148.5C 107.973,144.049 107.139,139.716 105.5,135.5 Z"/></g>
<g><path style="opacity:1" fill="#fdfcfc" d="M 130.5,224.5 C 131.117,224.611 131.617,224.944 132,225.5C 132.311,223.444 132.811,221.444 133.5,219.5C 133.525,216.962 133.359,214.295 133,211.5C 133.333,212.167 133.667,212.833 134,213.5C 134.791,212.255 135.291,210.922 135.5,209.5C 135.767,207.035 136.434,204.701 137.5,202.5C 138.097,202.265 138.43,201.765 138.5,201C 137.944,199.989 137.278,199.156 136.5,198.5C 136.5,197.833 136.833,197.5 137.5,197.5C 138.573,195.653 138.573,193.653 137.5,191.5C 138.167,191.833 138.833,192.167 139.5,192.5C 139.343,193.873 139.51,195.207 140,196.5C 156.585,163.615 183.418,148.448 220.5,151C 230.899,153.451 241.066,156.618 251,160.5C 255.414,160.252 257.581,157.919 257.5,153.5C 258.5,153.5 259.5,153.5 260.5,153.5C 260.5,171.833 260.5,190.167 260.5,208.5C 278.5,208.5 296.5,208.5 314.5,208.5C 314.5,209.5 314.5,210.5 314.5,211.5C 309.592,210.874 305.092,211.874 301,214.5C 300.138,216.087 299.471,217.754 299,219.5C 298.5,227.493 298.334,235.493 298.5,243.5C 290.167,243.5 281.833,243.5 273.5,243.5C 273.666,235.16 273.5,226.827 273,218.5C 272.315,215.943 270.815,214.109 268.5,213C 264.94,211.763 261.273,211.263 257.5,211.5C 258.758,166.916 237.758,149.749 194.5,160C 180.548,166.62 170.714,177.12 165,191.5C 155.979,219.053 156.646,246.387 167,273.5C 181.821,304.342 205.988,315.842 239.5,308C 255.48,301.85 265.147,290.35 268.5,273.5C 269.325,272.614 270.325,272.281 271.5,272.5C 266.191,301.642 248.857,318.475 219.5,323C 176.529,325.113 148.029,305.946 134,265.5C 132.118,251.875 130.951,238.209 130.5,224.5 Z"/></g>
<g><path style="opacity:1" fill="#e7d2d5" d="M 110.5,150.5 C 110.351,151.552 110.517,152.552 111,153.5C 114.248,156.357 116.748,159.69 118.5,163.5C 115.734,160.836 113.067,158.003 110.5,155C 108.866,154.506 107.199,154.34 105.5,154.5C 105.918,153.778 106.584,153.278 107.5,153C 105.343,151.915 105.176,150.749 107,149.5C 107.953,151.373 109.12,151.706 110.5,150.5 Z"/></g>
<g><path style="opacity:1" fill="#d2aeb3" d="M 123.5,155.5 C 124.742,159.912 124.409,164.246 122.5,168.5C 121.833,168.5 121.5,168.167 121.5,167.5C 123.134,164.321 123.467,160.987 122.5,157.5C 123.338,157.158 123.672,156.492 123.5,155.5 Z"/></g>
<g><path style="opacity:1" fill="#d4b0b5" d="M 95.5,170.5 C 98.1667,171.167 99.8333,172.833 100.5,175.5C 98.5,174.167 96.8333,172.5 95.5,170.5 Z"/></g>
<g><path style="opacity:1" fill="#ba818a" d="M 95.5,170.5 C 96.8333,172.5 98.5,174.167 100.5,175.5C 102.002,177.175 103.335,179.008 104.5,181C 103.833,181.667 103.167,181.667 102.5,181C 98.8333,177.333 95.1667,173.667 91.5,170C 92.8193,169.805 94.1526,169.972 95.5,170.5 Z"/></g>
<g><path style="opacity:1" fill="#dfc5c9" d="M 95.5,170.5 C 94.1526,169.972 92.8193,169.805 91.5,170C 95.1667,173.667 98.8333,177.333 102.5,181C 103.167,181.667 103.833,181.667 104.5,181C 103.335,179.008 102.002,177.175 100.5,175.5C 102.017,175.511 103.184,176.177 104,177.5C 104.801,181.768 106.634,185.435 109.5,188.5C 109.167,188.5 108.833,188.5 108.5,188.5C 107.71,187.599 106.71,186.932 105.5,186.5C 101.002,184.065 96.5015,182.398 92,181.5C 91.5683,180.4 92.0683,179.733 93.5,179.5C 94.8638,180.043 96.1971,180.21 97.5,180C 92.8333,175.333 88.1667,170.667 83.5,166C 88.2362,165.633 92.2362,167.133 95.5,170.5 Z"/></g>
<g><path style="opacity:1" fill="#d3b0b5" d="M 105.5,186.5 C 106.71,186.932 107.71,187.599 108.5,188.5C 104.59,188.737 100.923,187.904 97.5,186C 96.3044,185.346 96.3044,184.846 97.5,184.5C 100.181,186.307 102.848,186.974 105.5,186.5 Z"/></g>
<g><path style="opacity:1" fill="#dec2c7" d="M 118.5,163.5 C 119.974,164.436 120.974,165.77 121.5,167.5C 121.5,168.167 121.833,168.5 122.5,168.5C 124.656,177.368 125.99,186.368 126.5,195.5C 126.167,195.5 125.833,195.5 125.5,195.5C 125.021,184.527 122.687,173.86 118.5,163.5 Z"/></g>
<g><path style="opacity:1" fill="#dbbec2" d="M 139.5,192.5 C 138.833,192.167 138.167,191.833 137.5,191.5C 135.229,186.746 134.395,181.746 135,176.5C 140.364,180.708 141.864,186.041 139.5,192.5 Z"/></g>
<g><path style="opacity:1" fill="#ddc0c4" d="M 98.5,197.5 C 98.5394,196.417 98.8728,195.417 99.5,194.5C 98.3118,194.693 96.9785,194.193 95.5,193C 95.8333,192.667 96.1667,192.333 96.5,192C 91.6013,193.068 86.6013,193.401 81.5,193C 76.1205,189.529 76.7872,187.863 83.5,188C 82.6919,188.308 82.0253,188.808 81.5,189.5C 84.1062,190.652 86.7728,190.818 89.5,190C 89.9302,189.08 90.2635,188.247 90.5,187.5C 92.0016,188.083 93.3349,188.916 94.5,190C 99.5634,190.248 104.563,190.915 109.5,192C 106.901,192.769 104.401,192.602 102,191.5C 101.576,194.025 100.41,196.025 98.5,197.5 Z"/></g>
<g><path style="opacity:1" fill="#e6d2d5" d="M 109.5,188.5 C 111.543,189.579 112.876,191.246 113.5,193.5C 112.448,193.649 111.448,193.483 110.5,193C 110.833,192.667 111.167,192.333 111.5,192C 110.177,191.184 109.511,190.017 109.5,188.5 Z"/></g>
<g><path style="opacity:1" fill="#dcbfc3" d="M 113.5,193.5 C 116.331,194.079 118.664,195.412 120.5,197.5C 117.669,196.921 115.336,195.588 113.5,193.5 Z"/></g>
<g><path style="opacity:1" fill="#d8b7bc" d="M 121.5,205.5 C 120.356,203.9 119.189,202.233 118,200.5C 116.812,201.563 116.312,202.897 116.5,204.5C 114.797,202.149 114.297,199.482 115,196.5C 118.936,198.263 121.103,201.263 121.5,205.5 Z"/></g>
<g><path style="opacity:1" fill="#cca1a8" d="M 137.5,197.5 C 136.833,197.5 136.5,197.833 136.5,198.5C 135.5,198.833 134.833,199.5 134.5,200.5C 132.485,198.324 130.818,195.824 129.5,193C 130.5,192.333 131.5,192.333 132.5,193C 131.346,193.914 131.513,194.747 133,195.5C 133.333,194.833 133.667,194.167 134,193.5C 135.376,194.705 136.542,196.038 137.5,197.5 Z"/></g>
<g><path style="opacity:1" fill="#d9babf" d="M 98.5,197.5 C 96.1203,200.53 93.1203,201.53 89.5,200.5C 90.4229,198.076 91.9229,196.076 94,194.5C 94.1626,196.387 93.3293,197.887 91.5,199C 94.0638,199.45 95.5638,198.284 96,195.5C 96.4169,196.756 97.2502,197.423 98.5,197.5 Z"/></g>
<g><path style="opacity:1" fill="#bf8b93" d="M 121.5,205.5 C 121.433,207.401 121.767,209.234 122.5,211C 121.824,212.683 120.824,212.85 119.5,211.5C 120.974,209.073 120.807,206.74 119,204.5C 118.667,205.167 118.333,205.833 118,206.5C 117.722,205.584 117.222,204.918 116.5,204.5C 116.312,202.897 116.812,201.563 118,200.5C 119.189,202.233 120.356,203.9 121.5,205.5 Z"/></g>
<g><path style="opacity:1" fill="#ebdadd" d="M 125.5,195.5 C 125.833,195.5 126.167,195.5 126.5,195.5C 126.338,197.527 126.505,199.527 127,201.5C 129.157,203.817 130.657,206.484 131.5,209.5C 130.21,208.942 129.377,207.942 129,206.5C 128.768,207.737 128.268,208.737 127.5,209.5C 127.245,206.984 126.411,204.65 125,202.5C 123.242,200.917 121.742,199.25 120.5,197.5C 122.229,198.117 123.729,199.117 125,200.5C 125.494,198.866 125.66,197.199 125.5,195.5 Z"/></g>
<g><path style="opacity:1" fill="#d5b3b8" d="M 116.5,204.5 C 117.222,204.918 117.722,205.584 118,206.5C 118.333,205.833 118.667,205.167 119,204.5C 120.807,206.74 120.974,209.073 119.5,211.5C 117.707,209.574 116.707,207.241 116.5,204.5 Z"/></g>
<g><path style="opacity:1" fill="#be8991" d="M 137.5,202.5 C 136.434,204.701 135.767,207.035 135.5,209.5C 134.637,210.463 133.97,210.463 133.5,209.5C 134.167,207.5 134.833,205.5 135.5,203.5C 135.957,202.702 136.624,202.369 137.5,202.5 Z"/></g>
<g><path style="opacity:1" fill="#d5b2b8" d="M 121.5,205.5 C 122.956,208.927 123.956,212.594 124.5,216.5C 118.976,217.251 114.31,215.418 110.5,211C 113.176,211.034 115.843,211.534 118.5,212.5C 119.107,212.376 119.44,212.043 119.5,211.5C 120.824,212.85 121.824,212.683 122.5,211C 121.767,209.234 121.433,207.401 121.5,205.5 Z"/></g>
<g><path style="opacity:1" fill="#e0c7cb" d="M 136.5,198.5 C 137.278,199.156 137.944,199.989 138.5,201C 138.43,201.765 138.097,202.265 137.5,202.5C 136.624,202.369 135.957,202.702 135.5,203.5C 134.833,205.5 134.167,207.5 133.5,209.5C 133.97,210.463 134.637,210.463 135.5,209.5C 135.291,210.922 134.791,212.255 134,213.5C 133.667,212.833 133.333,212.167 133,211.5C 133.359,214.295 133.525,216.962 133.5,219.5C 132.811,221.444 132.311,223.444 132,225.5C 131.617,224.944 131.117,224.611 130.5,224.5C 128.243,223.438 127.077,221.772 127,219.5C 128.333,220.833 129.667,222.167 131,223.5C 130.772,218.64 129.605,213.973 127.5,209.5C 128.268,208.737 128.768,207.737 129,206.5C 129.377,207.942 130.21,208.942 131.5,209.5C 132.735,206.67 133.735,203.67 134.5,200.5C 134.833,199.5 135.5,198.833 136.5,198.5 Z"/></g>
<g><path style="opacity:1" fill="#dfc5c9" d="M 124.5,246.5 C 121.029,242.739 116.862,241.072 112,241.5C 110.926,240.382 109.76,239.382 108.5,238.5C 109.729,237.719 111.062,237.219 112.5,237C 108.833,233.333 105.167,229.667 101.5,226C 104.244,226.019 106.911,226.686 109.5,228C 108.833,228.333 108.167,228.667 107.5,229C 110.384,232.586 113.717,235.252 117.5,237C 116.549,236.282 116.383,235.449 117,234.5C 118.887,238.886 121.387,242.886 124.5,246.5 Z"/></g>
<g><path style="opacity:1" fill="#bb838c" d="M 105.5,243.5 C 106.853,244.526 107.853,245.859 108.5,247.5C 105.689,247.174 103.022,246.341 100.5,245C 102.154,244.392 103.821,243.892 105.5,243.5 Z"/></g>
<g><path style="opacity:1" fill="#d0a9af" d="M 105.5,243.5 C 103.821,243.892 102.154,244.392 100.5,245C 103.022,246.341 105.689,247.174 108.5,247.5C 104.775,250.439 101.275,250.105 98,246.5C 97.5439,245.256 98.0439,244.423 99.5,244C 101,243.5 102.5,243 104,242.5C 104.765,242.57 105.265,242.903 105.5,243.5 Z"/></g>
<g><path style="opacity:1" fill="#e3ccd0" d="M 342.5,253.5 C 342.5,252.833 342.167,252.5 341.5,252.5C 344.024,249.786 347.024,249.119 350.5,250.5C 351.521,251.002 351.688,251.668 351,252.5C 347.929,251.041 345.096,251.374 342.5,253.5 Z"/></g>
<g><path style="opacity:1" fill="#fefefe" d="M 253.5,263.5 C 254.873,263.343 256.207,263.51 257.5,264C 255.527,264.495 253.527,264.662 251.5,264.5C 251.334,259.821 251.501,255.155 252,250.5C 252.175,255.019 252.675,259.353 253.5,263.5 Z"/></g>
<g><path style="opacity:1" fill="#f9f3f4" d="M 298.5,250.5 C 300.857,250.337 303.19,250.503 305.5,251C 303.866,251.494 302.199,251.66 300.5,251.5C 300.5,253.167 300.5,254.833 300.5,256.5C 305.833,256.833 305.833,257.167 300.5,257.5C 300.5,259.5 300.5,261.5 300.5,263.5C 302.199,263.34 303.866,263.506 305.5,264C 303.19,264.497 300.857,264.663 298.5,264.5C 298.5,259.833 298.5,255.167 298.5,250.5 Z"/></g>
<g><path style="opacity:1" fill="#f4ebec" d="M 389.5,250.5 C 388.081,251.451 386.415,251.784 384.5,251.5C 384.5,253.167 384.5,254.833 384.5,256.5C 389.833,256.833 389.833,257.167 384.5,257.5C 384.5,259.5 384.5,261.5 384.5,263.5C 386.199,263.34 387.866,263.506 389.5,264C 387.19,264.497 384.857,264.663 382.5,264.5C 382.5,259.833 382.5,255.167 382.5,250.5C 384.833,250.5 387.167,250.5 389.5,250.5 Z"/></g>
<g><path style="opacity:1" fill="#f4ebec" d="M 199.5,250.5 C 202.797,253.296 205.964,256.296 209,259.5C 209.179,256.447 209.679,253.447 210.5,250.5C 211.833,255.167 211.833,259.833 210.5,264.5C 207.516,261.015 204.349,257.682 201,254.5C 200.667,257.833 200.333,261.167 200,264.5C 199.501,259.845 199.334,255.179 199.5,250.5 Z"/></g>
<g><path style="opacity:1" fill="#f4ebec" d="M 361.5,250.5 C 364.797,253.296 367.964,256.296 371,259.5C 371.179,256.447 371.679,253.447 372.5,250.5C 373.833,255.167 373.833,259.833 372.5,264.5C 369.516,261.015 366.349,257.682 363,254.5C 362.667,257.833 362.333,261.167 362,264.5C 361.501,259.845 361.334,255.179 361.5,250.5 Z"/></g>
<g><path style="opacity:1" fill="#d7b5ba" d="M 253.5,263.5 C 252.675,259.353 252.175,255.019 252,250.5C 251.501,255.155 251.334,259.821 251.5,264.5C 250.513,259.695 250.179,254.695 250.5,249.5C 251.5,249.5 252.5,249.5 253.5,249.5C 253.5,254.167 253.5,258.833 253.5,263.5 Z"/></g>
<g><path style="opacity:1" fill="#ddc1c6" d="M 284.5,250.5 C 284.5,250.833 284.5,251.167 284.5,251.5C 283.167,251.5 281.833,251.5 280.5,251.5C 280.5,255.5 280.5,259.5 280.5,263.5C 279.675,259.353 279.175,255.019 279,250.5C 278.501,255.155 278.334,259.821 278.5,264.5C 277.513,259.695 277.179,254.695 277.5,249.5C 280.059,249.198 282.393,249.532 284.5,250.5 Z"/></g>
<g><path style="opacity:1" fill="#cea6ac" d="M 331.5,250.5 C 329.564,254.715 328.897,259.381 329.5,264.5C 328.513,259.695 328.179,254.695 328.5,249.5C 329.791,249.263 330.791,249.596 331.5,250.5 Z"/></g>
<g><path style="opacity:1" fill="#efe3e4" d="M 331.5,250.5 C 332.103,255.619 331.436,260.285 329.5,264.5C 328.897,259.381 329.564,254.715 331.5,250.5 Z"/></g>
<g><path style="opacity:1" fill="#d8b8bd" d="M 105.5,243.5 C 107.681,243.284 109.347,244.117 110.5,246C 114.887,246.226 119.221,246.726 123.5,247.5C 124.107,247.376 124.44,247.043 124.5,246.5C 125.627,247.122 126.627,247.955 127.5,249C 124.53,248.842 121.53,248.342 118.5,247.5C 116.402,249.489 114.402,251.655 112.5,254C 110.466,255.205 108.466,255.372 106.5,254.5C 107.803,252.063 109.47,249.896 111.5,248C 110.552,247.517 109.552,247.351 108.5,247.5C 107.853,245.859 106.853,244.526 105.5,243.5 Z"/></g>
<g><path style="opacity:1" fill="#f4ebed" d="M 239.5,250.5 C 240.805,252.397 241.471,254.731 241.5,257.5C 241.167,259.833 240.833,262.167 240.5,264.5C 239.507,259.88 239.173,255.214 239.5,250.5 Z"/></g>
<g><path style="opacity:1" fill="#f1e6e8" d="M 315.5,249.5 C 317.665,249.116 319.332,249.783 320.5,251.5C 318.997,252.052 317.331,252.052 315.5,251.5C 316.926,254.769 318.593,257.935 320.5,261C 320.415,262.107 320.081,263.107 319.5,264C 317.527,264.495 315.527,264.662 313.5,264.5C 313.351,263.448 313.517,262.448 314,261.5C 315.049,263.107 316.549,263.773 318.5,263.5C 318.657,262.127 318.49,260.793 318,259.5C 313.352,256.915 312.519,253.581 315.5,249.5 Z"/></g>
<g><path style="opacity:1" fill="#f5edef" d="M 341.5,252.5 C 342.167,252.5 342.5,252.833 342.5,253.5C 340.395,260.617 343.062,263.951 350.5,263.5C 350.238,262.022 350.571,260.689 351.5,259.5C 352.747,261.006 352.747,262.506 351.5,264C 344.911,266.211 340.911,264.044 339.5,257.5C 339.437,255.486 340.103,253.819 341.5,252.5 Z"/></g>
<g><path style="opacity:1" fill="#d2aeb4" d="M 389.5,250.5 C 387.167,250.5 384.833,250.5 382.5,250.5C 382.5,255.167 382.5,259.833 382.5,264.5C 381.513,259.695 381.179,254.695 381.5,249.5C 384.385,249.194 387.052,249.527 389.5,250.5 Z"/></g>
<g><path style="opacity:1" fill="#dfc4c8" d="M 403.5,250.5 C 402.833,250.5 402.5,250.833 402.5,251.5C 400.692,252.918 400.025,254.918 400.5,257.5C 399.686,255.369 399.186,253.036 399,250.5C 398.501,255.155 398.334,259.821 398.5,264.5C 397.513,259.695 397.179,254.695 397.5,249.5C 399.735,249.205 401.735,249.539 403.5,250.5 Z"/></g>
<g><path style="opacity:1" fill="#f6eeef" d="M 400.5,257.5 C 401.496,257.586 402.329,257.252 403,256.5C 403.78,254.613 403.613,252.946 402.5,251.5C 402.5,250.833 402.833,250.5 403.5,250.5C 407.172,252.599 407.506,255.265 404.5,258.5C 405.253,260.753 406.586,262.587 408.5,264C 407.5,264.667 406.5,264.667 405.5,264C 404.227,261.201 402.227,259.367 399.5,258.5C 399.795,260.735 399.461,262.735 398.5,264.5C 398.334,259.821 398.501,255.155 399,250.5C 399.186,253.036 399.686,255.369 400.5,257.5 Z"/></g>
<g><path style="opacity:1" fill="#b97f88" d="M 402.5,251.5 C 403.613,252.946 403.78,254.613 403,256.5C 402.329,257.252 401.496,257.586 400.5,257.5C 400.025,254.918 400.692,252.918 402.5,251.5 Z"/></g>
<g><path style="opacity:1" fill="#efe2e4" d="M 224.5,250.5 C 225.376,250.369 226.043,250.702 226.5,251.5C 228.407,255.727 230.407,259.894 232.5,264C 231.552,264.483 230.552,264.649 229.5,264.5C 229.763,261.266 228.263,259.932 225,260.5C 223.833,260.833 222.667,261.167 221.5,261.5C 221.081,262.672 220.415,263.672 219.5,264.5C 219.167,264.167 218.833,263.833 218.5,263.5C 220.788,259.26 222.788,254.927 224.5,250.5 Z"/></g>
<g><path style="opacity:1" fill="#bc848d" d="M 224.5,253.5 C 228.916,257.678 228.25,259.178 222.5,258C 223.582,256.67 224.249,255.17 224.5,253.5 Z"/></g>
<g><path style="opacity:1" fill="#f5ecee" d="M 280.5,263.5 C 286.867,263.128 289.034,259.794 287,253.5C 286.292,252.619 285.458,251.953 284.5,251.5C 284.5,251.167 284.5,250.833 284.5,250.5C 286.582,250.624 288.082,251.624 289,253.5C 290.774,262.226 287.274,265.892 278.5,264.5C 278.334,259.821 278.501,255.155 279,250.5C 279.175,255.019 279.675,259.353 280.5,263.5 Z"/></g>
<g><path style="opacity:1" fill="#b98089" d="M 284.5,251.5 C 285.458,251.953 286.292,252.619 287,253.5C 289.034,259.794 286.867,263.128 280.5,263.5C 280.5,259.5 280.5,255.5 280.5,251.5C 281.833,251.5 283.167,251.5 284.5,251.5 Z"/></g>
<g><path style="opacity:1" fill="#fefdfd" d="M 273.5,272.5 C 281.833,272.5 290.167,272.5 298.5,272.5C 298.333,302.169 298.5,331.835 299,361.5C 299.833,365 302,367.167 305.5,368C 321.418,370.695 337.084,369.695 352.5,365C 364.229,359.271 373.396,350.771 380,339.5C 385.107,329.951 389.107,319.951 392,309.5C 392.71,308.027 393.876,307.36 395.5,307.5C 390.796,328.983 385.463,350.316 379.5,371.5C 338.839,372.5 298.172,372.833 257.5,372.5C 257.5,371.5 257.5,370.5 257.5,369.5C 260.85,369.665 264.183,369.498 267.5,369C 270,367.833 271.833,366 273,363.5C 273.5,333.168 273.667,302.835 273.5,272.5 Z"/></g>
</svg>
